<?xml version="1.0" encoding="UTF-8"?>
<svg id="Layer_2" data-name="Layer 2" xmlns="http://www.w3.org/2000/svg" viewBox="0 0 78.24 72.39">
  <defs>
    <style>
      .cls-1 {
        fill: #fff;
      }

      .cls-1, .cls-2 {
        stroke-width: .5px;
      }

      .cls-1, .cls-2, .cls-3 {
        stroke: #6b3a96;
        stroke-miterlimit: 10;
      }

      .cls-4 {
        fill: #cdc6e2;
      }

      .cls-4, .cls-5 {
        stroke-width: 0px;
      }

      .cls-6 {
        letter-spacing: 0em;
      }

      .cls-7 {
        fill: #231f20;
        font-family: Sitka-Small, Sitka;
        font-size: 12px;
        font-variation-settings: 'opsz' 6, 'wght' 400;
      }

      .cls-8 {
        letter-spacing: 0em;
      }

      .cls-9 {
        fill: #6b3a96;
        font-family: SourceSerifRoman-Regular, 'Source Serif Variable';
        font-size: 6px;
        font-variation-settings: 'wght' 400;
      }

      .cls-5 {
        fill: #cdc6e1;
      }

      .cls-2, .cls-3 {
        fill: none;
      }

      .cls-10 {
        letter-spacing: -.03em;
      }

      .cls-11 {
        letter-spacing: -.01em;
      }

      .cls-12 {
        letter-spacing: -.02em;
      }

      .cls-3 {
        stroke-width: .25px;
      }

      .cls-13 {
        letter-spacing: 0em;
      }

      .cls-14 {
        letter-spacing: -.02em;
      }
    </style>
  </defs>
  <g id="Layer_1-2" data-name="Layer 1">
    <g>
      <circle class="cls-4" cx="44.7" cy="15.62" r="15.62"/>
      <path class="cls-2" d="M20.11,44.75V15.97c.2-1.33,1.17-6.59,5.94-10.6,4.41-3.71,9.28-3.99,10.71-4.02,1.51.01,5.88.25,10.03,3.38,5.1,3.85,6.22,9.31,6.45,10.6.09,9.81.17,19.62.26,29.43"/>
      <line class="cls-1" x1="10.4" y1="44.75" x2="63.19" y2="44.75"/>
      <line class="cls-1" x1="36.8" y1="1.35" x2="36.8" y2="11.43"/>
      <path class="cls-2" d="M35.44,13.35c.19-.12.71-.41,1.41-.39.64.01,1.1.27,1.3.39.02-.08.15-.78-.35-1.34-.41-.46-.96-.5-1.07-.51-.1.02-.79.17-1.14.83-.24.44-.18.87-.16,1.02Z"/>
      <path class="cls-2" d="M26.93,36.86c-1.06.05-1.82-.83-1.72-1.6.08-.67.82-1.28,1.72-1.2h6.38c.65.14,1.12.69,1.15,1.33.03.69-.45,1.32-1.15,1.47h-6.38Z"/>
      <polyline class="cls-2" points="25.2 41.94 26.93 36.86 32.77 36.86 34.3 41.94"/>
      <rect class="cls-2" x="39.4" y="23.31" width="9.83" height="18.13" rx="1" ry="1"/>
      <line class="cls-2" x1="39.4" y1="26.74" x2="49.23" y2="26.74"/>
      <line class="cls-2" x1="39.4" y1="31.69" x2="49.23" y2="31.69"/>
      <line class="cls-2" x1="39.4" y1="37.91" x2="49.23" y2="37.91"/>
      <circle class="cls-3" cx="44.26" cy="36.45" r=".45"/>
      <circle class="cls-3" cx="44.26" cy="30.32" r=".45"/>
      <rect class="cls-5" y="55.84" width="37.57" height="6.51"/>
      <text class="cls-7" transform="translate(1.28 59.07)"><tspan x="0" y="0">M</tspan><tspan class="cls-8" x="11.65" y="0">Y</tspan><tspan class="cls-13" x="19.5" y="0">S</tspan><tspan x="26.66" y="0">T HOME</tspan></text>
      <text class="cls-9" transform="translate(16.39 70.38)"><tspan class="cls-10" x="0" y="0">D</tspan><tspan class="cls-6" x="4.08" y="0">E</tspan><tspan x="7.69" y="0">C</tspan><tspan class="cls-14" x="11.48" y="0">O</tspan><tspan x="15.58" y="0">R </tspan><tspan class="cls-11" x="20.88" y="0">ST</tspan><tspan class="cls-12" x="27.46" y="0">U</tspan><tspan class="cls-10" x="31.7" y="0">D</tspan><tspan class="cls-14" x="35.78" y="0">I</tspan><tspan x="37.86" y="0">O</tspan></text>
      <path class="cls-2" d="M33.48,16.69h6.64c0-.31-.01-1.35-.77-2.3-.94-1.19-2.31-1.33-2.54-1.35-.19,0-1.81.1-2.76,1.48-.62.9-.6,1.85-.57,2.17Z"/>
    </g>
  </g>
</svg>